<mxfile host="app.diagrams.net" modified="2021-01-08T13:10:13.753Z" agent="5.0 (Windows NT 10.0; Win64; x64) AppleWebKit/537.36 (KHTML, like Gecko) Chrome/87.0.4280.88 Safari/537.36" etag="V85F3-o9k4ZxTswk8MW6" version="13.9.8" type="github">
  <diagram id="EXMwGe8n8JQvGrVVUsFZ" name="Page-1">
    <mxGraphModel dx="1422" dy="794" grid="1" gridSize="10" guides="1" tooltips="1" connect="1" arrows="1" fold="1" page="1" pageScale="1" pageWidth="827" pageHeight="1169" math="0" shadow="0">
      <root>
        <mxCell id="0" />
        <mxCell id="1" parent="0" />
        <mxCell id="dPiY7mMu_tDuomkgzKCG-3" value="" style="edgeStyle=orthogonalEdgeStyle;rounded=0;orthogonalLoop=1;jettySize=auto;html=1;" parent="1" source="dPiY7mMu_tDuomkgzKCG-1" target="dPiY7mMu_tDuomkgzKCG-2" edge="1">
          <mxGeometry relative="1" as="geometry" />
        </mxCell>
        <mxCell id="dPiY7mMu_tDuomkgzKCG-1" value="" style="ellipse;whiteSpace=wrap;html=1;" parent="1" vertex="1">
          <mxGeometry x="200" y="110" width="120" height="80" as="geometry" />
        </mxCell>
        <mxCell id="dPiY7mMu_tDuomkgzKCG-2" value="" style="rhombus;whiteSpace=wrap;html=1;" parent="1" vertex="1">
          <mxGeometry x="450" y="330.5" width="180" height="189.5" as="geometry" />
        </mxCell>
        <mxCell id="aofYI1LqzTc355MKnnj6-1" value="" style="shape=cylinder3;whiteSpace=wrap;html=1;boundedLbl=1;backgroundOutline=1;size=15;" parent="1" vertex="1">
          <mxGeometry x="280" y="410" width="60" height="80" as="geometry" />
        </mxCell>
        <mxCell id="aofYI1LqzTc355MKnnj6-2" value="" style="shape=card;whiteSpace=wrap;html=1;" parent="1" vertex="1">
          <mxGeometry x="80" y="420" width="80" height="100" as="geometry" />
        </mxCell>
        <mxCell id="aofYI1LqzTc355MKnnj6-3" value="" style="shape=image;html=1;verticalLabelPosition=bottom;verticalAlign=top;imageAspect=1;aspect=fixed;image=img/clipart/Gear_128x128.png" parent="1" vertex="1">
          <mxGeometry x="680" y="170" width="52" height="61" as="geometry" />
        </mxCell>
      </root>
    </mxGraphModel>
  </diagram>
</mxfile>
